<svg xmlns="http://www.w3.org/2000/svg" viewBox="0 0 1 1">
  <path title="Albrandswaard" d="M0.42375281201865356,0.6599269496371463 L0.4097440878442491,0.6567809896050818 L0.38366452519404426,0.6578817464039517 L0.384449575640585,0.6383910091050993 L0.3862199407228353,0.6337825734607634 L0.3928411870243851,0.6281939926578204 L0.4057709305942936,0.6268018053003672 L0.4122528821274827,0.6285714191425313 L0.4181485824037523,0.6276252595204852 L0.4347003048666318,0.6308906203528792 L0.4410202253767208,0.6340902588175155 L0.44647541440022387,0.6339490853139296 L0.4630875539080668,0.6376765424068154 L0.48040261583466215,0.6376724399994202 L0.4802875105532278,0.6448514125564344 L0.4901251788993637,0.648684506598002 L0.4871872891708362,0.6514508415956755 L0.4922271150520059,0.6585557862725366 L0.4897319430779614,0.659245454389449 L0.4890943041414202,0.6646044317074384 L0.4671194386991644,0.6680561673354006 L0.4529701017028209,0.6681361468214817 L0.42375281201865356,0.6599269496371463 Z" fill="none" stroke="black" stroke-width="0.002"/>
  <path title="Barendrecht" d="M0.4901251788993637,0.648684506598002 L0.4802875105532278,0.6448514125564344 L0.47991551595265314,0.634725538238186 L0.49404026921609034,0.6310318208354033 L0.5260954376793396,0.6302692427761016 L0.532026633773584,0.631223288577381 L0.5425786664445447,0.6292013466563375 L0.5493831373987552,0.625972770812993 L0.5641058248812421,0.6465266167885133 L0.565961256722626,0.6479136913555408 L0.5699706960426933,0.6473794635885426 L0.5713498119430636,0.6519971063817565 L0.5600134247071793,0.6612087367766435 L0.5536087009765494,0.6701030958471179 L0.5457487249347599,0.6680550516403017 L0.5254779429982976,0.6701457604234022 L0.5021882485470197,0.6651340364837282 L0.4890943041414202,0.6646044317074384 L0.4897319430779614,0.659245454389449 L0.4922271150520059,0.6585557862725366 L0.4871872891708362,0.6514508415956755 L0.4901251788993637,0.648684506598002 Z" fill="none" stroke="black" stroke-width="0.002"/>
  <path title="Capelle aan den IJssel" d="M0.5727796451516118,0.5565438888605385 L0.5640634379892031,0.5491911476639686 L0.5620531088472784,0.5411254557702918 L0.5643671311354517,0.540075464969199 L0.5680128809009561,0.5419200941230073 L0.5838319726135799,0.5344961603475085 L0.602068263223086,0.5505244032064667 L0.5997340093709171,0.552327704740847 L0.6194886249154701,0.5665077330829646 L0.6154343108626747,0.5722341030694125 L0.6107243898569434,0.5746589071703312 L0.5985988924946222,0.5737667151116383 L0.5821170688303576,0.5795245265295748 L0.5778681820066716,0.5849455402366956 L0.5676615951401773,0.5902040679651535 L0.5499012596214197,0.5932715144497536 L0.5510505790273674,0.5903620559969625 L0.556828308964942,0.589614293965596 L0.5564958877466504,0.5851968618377938 L0.5540249349761606,0.5852204464019266 L0.5539958743626983,0.5833822006802336 L0.5502626877050032,0.5851820537627432 L0.5476960346257309,0.5928261995629995 L0.5421359541009734,0.5937954443354272 L0.5373117073483211,0.5864454603277949 L0.5382220917330134,0.5846558406317399 L0.5405225898639188,0.5847581392514698 L0.5375495647563717,0.5802216230526511 L0.5569124656578444,0.5800879905580203 L0.5643788906224403,0.5764968361277241 L0.5662388144009247,0.5740911629851979 L0.5605944610215623,0.5590899219151737 L0.5727796451516118,0.5565438888605385 Z" fill="none" stroke="black" stroke-width="0.002"/>
  <path title="Delft" d="M0.3410445607985588,0.4971561637327824 L0.3384532269057061,0.4943092670982949 L0.3363708563888226,0.49524681997085906 L0.33265569348410384,0.4921171616807385 L0.32324442243216556,0.49566438839980975 L0.32063573787635224,0.49067796869842084 L0.3557708325413591,0.47401157389837323 L0.3734991871874831,0.4674011929738313 L0.38624489994701783,0.4766918094706014 L0.3945159408135739,0.4887443548204544 L0.3883455228436272,0.49055236000901914 L0.3886556835853092,0.49450645917455205 L0.3859157328273364,0.49516474684558887 L0.3970301284340554,0.5210259795418111 L0.4011523285560763,0.5216539987027531 L0.4079108767272217,0.531801395760354 L0.4029334129728941,0.5336836871085069 L0.3938098116871487,0.5224965250751126 L0.3836224811820319,0.5241841335780038 L0.3863028788099756,0.5277859494221744 L0.36917546462479134,0.5311295353268761 L0.36817383922117486,0.528418241914963 L0.3595402323710992,0.5298646037222952 L0.35662588140512863,0.5227037441254865 L0.3382273237890834,0.5258222853153782 L0.3327236419356048,0.5195433509101832 L0.33185520297507765,0.5155102719860949 L0.32411192780406584,0.5101413974353477 L0.3257323448261191,0.5080487757011625 L0.33310954289294337,0.506828203393269 L0.33152500123165307,0.5021478292811565 L0.33771691592929365,0.5011975197573051 L0.3358342917639874,0.49894468740819065 L0.3410445607985588,0.4971561637327824 Z" fill="none" stroke="black" stroke-width="0.002"/>
  <path title="Den Haag - Centrum" d="M0.3003913937502496,0.40144684188970103 L0.29996140625751977,0.4013623140442988 L0.29972376313171,0.4021888180695967 L0.3002226005344504,0.4037461065557011 L0.30036977413107024,0.4057018837185993 L0.29586650764495026,0.40749439565740175 L0.2946451988625398,0.40969242380749904 L0.29374360427824,0.4102952314497017 L0.2955170784322503,0.4117161585144018 L0.2944796784246302,0.411760103359498 L0.2922705085413604,0.41334896174529945 L0.2922995227628702,0.4140553523046009 L0.2930030924144802,0.4146003840876986 L0.29265642103611,0.41519207144440173 L0.29335290203119957,0.4153754634252991 L0.28761931977151,0.4181939713277032 L0.2947680276211404,0.42344758195589804 L0.2969595953002404,0.42603030857179647 L0.2899169053886901,0.4275934596372011 L0.2840432031873297,0.42959916176250346 L0.29258714849360956,0.4407958744116982 L0.3034571859053097,0.4434877376271018 L0.30489049672323,0.4435629345133023 L0.3060716718082501,0.4432184663204026 L0.3090078560604299,0.44150064111840237 L0.30972581249402964,0.44155177857290084 L0.30990979837804034,0.44037005693230213 L0.31120016706095033,0.4381379338804976 L0.31575536406725035,0.4340282734556027 L0.31622851933100016,0.43407352545160194 L0.3256973769044196,0.4299057609230985 L0.3251138572877599,0.42921832960330164 L0.3254550936814402,0.4290528093199981 L0.32511908779807985,0.4286725041057977 L0.3264881608786201,0.4282145352978972 L0.3264638397244397,0.4278778024518033 L0.3279690133351103,0.4272294129944001 L0.32822104048363965,0.42744375792970146 L0.3338397653967098,0.4250084819437987 L0.3304335795626203,0.42385169901770325 L0.3254916904538403,0.4206256414372973 L0.3267505707038101,0.42016936293889984 L0.32446709933198026,0.4182152211390999 L0.32544942170398006,0.4177008758151999 L0.32547399029968016,0.41737944247100245 L0.3248064263755204,0.4167646173672992 L0.3201645932329802,0.41862804447480073 L0.3155068489016104,0.4143492832627018 L0.30660156231167957,0.4036226229194 L0.3046638184410302,0.4032258653781966 L0.3003913937502496,0.40144684188970103 Z" fill="none" stroke="black" stroke-width="0.002"/>
  <path title="Den Haag - Escamp" d="M0.28416242298600025,0.42943976150869645 L0.2756492149906302,0.43137798126829807 L0.2670642579994196,0.4341795448648966 L0.25924059900350027,0.43735604321690147 L0.2612219955316304,0.43834754377510166 L0.2641235114437803,0.4414000443132977 L0.2616069992789001,0.4428585138809993 L0.2605916493180098,0.44301818523759806 L0.26089264121720035,0.4433222123183995 L0.2564078637909599,0.4459995452655008 L0.25818238337095956,0.44663574591400135 L0.2615968509654598,0.4486455574209032 L0.25467545579090967,0.4531544871153983 L0.25540099279355033,0.45363991201870135 L0.24567692301263033,0.45999031639529875 L0.2394164765137603,0.4577707581966024 L0.23689073325436993,0.45909062377710086 L0.2351023425176102,0.46036861076530045 L0.2350540207066798,0.4607435890708018 L0.24369445636974962,0.470631988762797 L0.24502090501426022,0.47143231053370016 L0.24821710412383968,0.4747741263146992 L0.25506908684525964,0.4716302814608966 L0.25619893055026033,0.4717312231491988 L0.2671487325094297,0.46676255537539646 L0.2677365780958496,0.46674578089719887 L0.2726627230562997,0.464082673360501 L0.27589607044104003,0.4684426248430995 L0.27787436812070965,0.46750158674699804 L0.28171081376916973,0.4725688322898023 L0.2828004072474899,0.47237360323389765 L0.2834748574483097,0.4732995948616008 L0.2852498972114903,0.47257748839309954 L0.28588388823374,0.47351898263970327 L0.2850462172203603,0.4737322556860022 L0.2856503463048199,0.47408612842689735 L0.2851422853370602,0.47437959849280276 L0.2882545825437903,0.47624219920510313 L0.2867337486749504,0.47701525169180314 L0.2943446098102598,0.480641193236103 L0.28973610726592014,0.4823520486480035 L0.28997891902058015,0.4824808606468025 L0.2955121643250802,0.48515143615779976 L0.29861452618941,0.4831229843534004 L0.30107539056467036,0.4821308868480969 L0.30266408497581043,0.48351179665289834 L0.3076386132712301,0.48184846906629986 L0.29792997338303007,0.4705897461576001 L0.29861672684175034,0.47017841752580125 L0.2909517344752697,0.458426751942703 L0.2938656859076998,0.45745930430850024 L0.2934529383020701,0.4569370932820007 L0.2975926891921601,0.45592505401530303 L0.2972469818125303,0.45542968843449927 L0.2987371272071897,0.4549904519918968 L0.2983667656542002,0.45444259167580014 L0.30339032205510996,0.45299029315710015 L0.30384031967737,0.4535056789691012 L0.30892869829575,0.45146827473009665 L0.3091543863819597,0.45170105898600355 L0.3100925718355301,0.45130947831690094 L0.30974431538315983,0.4513872085681001 L0.3087730935278996,0.44935296289099824 L0.3082006072493497,0.44701620324279645 L0.3081798992543199,0.4443699216119015 L0.3088931006524298,0.4417950138061002 L0.30714330089142994,0.44237803348860183 L0.30577167465686994,0.44335138738070157 L0.30407277029961044,0.44358105909879697 L0.29259975757650025,0.440803433651503 L0.2850470137987804,0.43100580555439905 L0.28416242298600025,0.42943976150869645 Z" fill="none" stroke="black" stroke-width="0.002"/>
  <path title="Den Haag - Haagse Hout" d="M0.32899147925401984,0.39082624068730354 L0.3225237446086098,0.3923185616232985 L0.3216187496168299,0.3935846428833969 L0.31135437200619975,0.39830360851850344 L0.3109974965755704,0.39868374531049966 L0.31133538664269,0.3990829408368981 L0.3111456463077804,0.3996421886792021 L0.3101052087844902,0.40001982565240013 L0.30910015423035997,0.4009971357562989 L0.3096099402670003,0.40126110103189916 L0.3074516819784199,0.4028579533614973 L0.30625403012855035,0.40337000013160207 L0.3155068489016104,0.4143492832627018 L0.3181943502363298,0.41706748319140274 L0.3201921682641098,0.41863786214489807 L0.3248064263755204,0.4167646173672992 L0.32547399029968016,0.41737944247100245 L0.32544942170398006,0.4177008758151999 L0.32446709933198026,0.4182152211390999 L0.3267505707038101,0.42016936293889984 L0.3254916904538403,0.4206256414372973 L0.3304335795626203,0.42385169901770325 L0.3338397653967098,0.4250084819437987 L0.3344848381182697,0.4247135313690009 L0.3352131278029402,0.4249991868327001 L0.3454837332235696,0.4208488163151003 L0.3452390127209304,0.4204200974373009 L0.3468074061240598,0.41983053152249994 L0.3471255494365,0.4199967466580006 L0.3471160137530003,0.4197190619945985 L0.37351433096220976,0.40770277951600065 L0.3714666121533998,0.40616492090310174 L0.3727091580325199,0.4052269771905017 L0.3704561658019898,0.4037664346694001 L0.3700728511976896,0.4039353576466027 L0.36507587221312043,0.3999632064456975 L0.3609820688525698,0.3959314642275018 L0.35848911111890036,0.3942382217136995 L0.3500456402078296,0.3989521187188032 L0.3423179698784402,0.40251771715040263 L0.34136191561032003,0.4016570539119968 L0.33857325319042975,0.4025647356261999 L0.3372528073879604,0.401230031463399 L0.33600411036528044,0.40191623015549993 L0.32748435193911973,0.404432454230502 L0.32328191024044006,0.40078303416029826 L0.33226414146246963,0.3969594527332987 L0.3303172282479796,0.3956575264369988 L0.3330602707495096,0.39426875147059803 L0.32899147925401984,0.39082624068730354 Z" fill="none" stroke="black" stroke-width="0.002"/>
  <path title="Den Haag - Laak" d="M0.3352131278029402,0.4249991868327001 L0.3344848381182697,0.4247135313690009 L0.32822104048363965,0.42744375792970146 L0.3279690133351103,0.4272294129944001 L0.3264638397244397,0.4278778024518033 L0.3264881608786201,0.4282145352978972 L0.32511908779807985,0.4286725041057977 L0.3254550936814402,0.4290528093199981 L0.3251138572877599,0.42921832960330164 L0.3257116469267096,0.4298979829297025 L0.31622851933100016,0.43407352545160194 L0.31589930797921983,0.4339439889464032 L0.3120102909568896,0.4371958924381971 L0.31024477063067035,0.4396579762833994 L0.3097304910282004,0.44154683688280016 L0.3090078560604299,0.44150064111840237 L0.3081798992543199,0.4443699216119015 L0.30837195360894043,0.4480142952740991 L0.30974431538315983,0.4513872085681001 L0.31304288333456043,0.4498794764418008 L0.31579749724529016,0.44934108590999955 L0.3198820084664904,0.448006050831701 L0.3219079913856504,0.44694789590889883 L0.32168247246211035,0.4466873557641975 L0.32215431789797044,0.44628579324010076 L0.3213605513556903,0.44537882417039754 L0.3242570342296398,0.444303407896399 L0.32468190706241007,0.44467592519969656 L0.32537741432011025,0.4446116756254028 L0.3276282498485603,0.4435468845771027 L0.32743320352393024,0.44324675167509753 L0.32775676091713013,0.44302474886789867 L0.32870864361253016,0.4434426987728983 L0.34030682131411005,0.4380527998147983 L0.34195091457409976,0.4389869807139988 L0.3555186089445197,0.43195981827550156 L0.3409351280394599,0.4269524419188002 L0.3405793921706799,0.4265112978187986 L0.34006544106710024,0.42665605215800184 L0.3352131278029402,0.4249991868327001 Z" fill="none" stroke="black" stroke-width="0.002"/>
  <path title="Den Haag - Leidschenveen-Ypenburg" d="M0.3406155704377003,0.4382483660854035 L0.3441051064740597,0.44052480908099767 L0.34699877727191986,0.443202963827801 L0.3468184477928,0.4442046975014975 L0.34451910228171023,0.44595268184959735 L0.3526386580555103,0.4509044947449965 L0.35215707841028987,0.45122318800689953 L0.3523141367185598,0.4518412410786965 L0.3495144754305004,0.4527697458772977 L0.34942120201897,0.45309482818640134 L0.3484748560602604,0.453315978942598 L0.34687746641689987,0.4544821219165982 L0.3460626829925104,0.45598151072120174 L0.3468367893993003,0.45642666162620316 L0.3469164490088197,0.45676337839780246 L0.34639473084298,0.45710801482520225 L0.35040559606350996,0.46052672566810315 L0.3537778423895004,0.4693237709849001 L0.3548338834259397,0.4695614298012032 L0.35776510539962025,0.47211833574179707 L0.35758693028321975,0.4730266825228 L0.3588486459156801,0.4726658488533033 L0.3597695014809501,0.47345374017219655 L0.37349911125537005,0.4674009686184988 L0.37973521096512997,0.4732671343846988 L0.3938908565790902,0.4670823933748025 L0.3874360256602998,0.46135286301969813 L0.3861317367780499,0.46149474529399725 L0.3798580888442,0.46404748991540146 L0.3726403353697396,0.45899401350209956 L0.38790433937792024,0.44883024427809914 L0.38967599116513973,0.45003839413430313 L0.3914397246500201,0.4482383264459031 L0.3911307897884697,0.4480480585981965 L0.39258656611342957,0.44684661779250234 L0.3931239276378804,0.44715630016050056 L0.3944447897944299,0.44594583721980285 L0.3985493150792596,0.4487818864259978 L0.40162454081951005,0.4464633392158035 L0.40491812650097003,0.4470117814276975 L0.4220720918351297,0.4483267129889015 L0.4152306002853896,0.4429868680442013 L0.4153943358940202,0.4425584391520019 L0.4224893445486302,0.4428057439057014 L0.42029687465803,0.4378069353819001 L0.42083221548435024,0.43741971669309976 L0.4206904102043403,0.43654452241810304 L0.4171517793256596,0.4336938176098002 L0.4119496223522203,0.42792289850530096 L0.4039233351494502,0.4221544135858011 L0.39703244653111014,0.42525318636639753 L0.39445409709611035,0.42420976652640263 L0.38865076829099987,0.4270258765752004 L0.38458249259832034,0.42376536968910017 L0.3799956811701204,0.42525462484299936 L0.36253459851648007,0.4356634875651011 L0.35601103611849005,0.43843217266680057 L0.36082601913077017,0.4415313159665004 L0.3595768907989001,0.44180085520500256 L0.3599685368922598,0.44207175755779815 L0.3594372460833002,0.4423687854980969 L0.3598226323610696,0.442633323929698 L0.3583803008775197,0.4429140809544023 L0.35734970987495007,0.44374494333000314 L0.3575748652019204,0.4434460415493007 L0.3539280119096997,0.44097915017459854 L0.3533162009487496,0.44133129408889715 L0.3522814012598898,0.44060554243780103 L0.34800354762962993,0.443501528823397 L0.3446657531017898,0.4404985070453975 L0.34219568409431034,0.43886506130189673 L0.34195091457409,0.4389869807139988 L0.3406155704377003,0.4382483660854035 Z" fill="none" stroke="black" stroke-width="0.002"/>
  <path title="Den Haag - Loosduinen" d="M0.22969876575036974,0.4207466598004004 L0.2186789922190604,0.4148484903968992 L0.19122547589087002,0.4337518787344976 L0.1849982476080596,0.43854924855310173 L0.19632864702595043,0.4443229891241032 L0.19973751887964042,0.44918283910499923 L0.19885344367879032,0.4499975907764977 L0.2002616553625698,0.451542436809099 L0.20218517323753993,0.4528876450957995 L0.2124342894997202,0.4659669106533997 L0.20958446121179986,0.4663452814581035 L0.21229216060356038,0.46928835589879725 L0.21378108753750968,0.46821631222709925 L0.2192266756878496,0.466263173865201 L0.22323172980217,0.46560411874710184 L0.22832623741483005,0.4653578307386965 L0.2350540207066798,0.4607435890708018 L0.2351023425176102,0.46036861076530045 L0.23689073325436993,0.45909062377710086 L0.2394164765137603,0.4577707581966024 L0.24567692301263033,0.45999031639529875 L0.25540099279355033,0.45363991201870135 L0.25467545579090967,0.4531544871153983 L0.2615968509654598,0.4486455574209032 L0.25818238337095956,0.44663574591400135 L0.2564078637909599,0.4459995452655008 L0.26089264121720035,0.4433222123183995 L0.2605916493180098,0.44301818523759806 L0.2616069992789001,0.4428585138809993 L0.2641345910062496,0.44136157423280054 L0.2612219955316304,0.43834754377510166 L0.2586362717229598,0.4369346206544975 L0.25049321120506995,0.434989965953001 L0.24671681208733975,0.4331875026297993 L0.24606467926594,0.43248837465579726 L0.25052568510611994,0.4308231054907026 L0.24908322881830003,0.42931413711009725 L0.24821302549961022,0.42908086660830236 L0.2507168829647499,0.42801635460440224 L0.25246433127133994,0.42686035883230034 L0.25242451696777035,0.42526793911299876 L0.25082454707755986,0.42369732217220246 L0.2505908397649099,0.42355126155050016 L0.24054960588764018,0.4276948011004009 L0.23732897338418013,0.42382547979980245 L0.23240412877763994,0.42212661707149834 L0.22969876575036974,0.4207466598004004 Z" fill="none" stroke="black" stroke-width="0.002"/>
  <path title="Den Haag - Segbroek" d="M0.24414698230711007,0.41180886241900083 L0.23166186871791972,0.40512527232750273 L0.2186789922190604,0.4148484903968992 L0.23240412877763994,0.42212661707149834 L0.23732897338418013,0.42382547979980245 L0.24054960588764018,0.4276948011004009 L0.2505908397649099,0.42355126155050016 L0.25242451696777035,0.42526793911299876 L0.25246433127133994,0.42686035883230034 L0.2507168829647499,0.42801635460440224 L0.24821302549961022,0.42908086660830236 L0.24908322881830003,0.42931413711009725 L0.25052568510611994,0.4308231054907026 L0.24606467926594,0.43248837465579726 L0.2475902204234801,0.43367711978760326 L0.25164186104896036,0.43535651467880143 L0.25825084859700986,0.4367939991951033 L0.2592411886314201,0.43735571397070316 L0.2670642579994196,0.4341795448648966 L0.2758924120044499,0.431303344263803 L0.2969595953002404,0.42603030857179647 L0.2947680276211404,0.42344758195589804 L0.28761931977151,0.4181939713277032 L0.28625622846744037,0.418781336243498 L0.2850914016642596,0.4189733605732968 L0.28482681947421984,0.4187365638890981 L0.2847878783406603,0.4190057915676988 L0.28189772882621966,0.4195135926955018 L0.27689753082292956,0.42124414327950177 L0.2762452830137798,0.420494875146197 L0.27608331657079965,0.41968927243750187 L0.27609898367084007,0.41845252810229994 L0.2765646735977798,0.4178839014388984 L0.27502980898665985,0.4173861563733965 L0.27458434648104024,0.4168267839035025 L0.2750426113930704,0.4167663485542974 L0.27465284662662004,0.41630129069940125 L0.2744943933589097,0.4164964956137993 L0.2719549434920401,0.41378564374920046 L0.2647464375986903,0.40836625293989925 L0.25739027595577024,0.41271964675490125 L0.25588817198956004,0.41394119591559786 L0.2526811289359401,0.4123636804231978 L0.24414698230711007,0.41180886241900083 Z" fill="none" stroke="black" stroke-width="0.002"/>
  <path title="Den Haag - Scheveningen" d="M0.2917455291981499,0.3658055617184033 L0.29006289103216965,0.36496335593489704 L0.2869087202928,0.3672849516441019 L0.27234288896304015,0.37560080130489837 L0.26463855407393044,0.3807210991494969 L0.2569072638874701,0.386412035774903 L0.25525798409136957,0.3872178597188025 L0.24786733999242028,0.3877845205464965 L0.24314259523309012,0.38937413281269784 L0.2388245167821097,0.39339227749629657 L0.23758736999622965,0.395695026927001 L0.23871658386145,0.40001966253159793 L0.23166186871791972,0.40512527232750273 L0.24414698230711007,0.41180886241900083 L0.2526811289359401,0.4123636804231978 L0.25588817198956004,0.41394119591559786 L0.25739027595577024,0.41271964675490125 L0.2647464375986903,0.40836625293989925 L0.2719549434920401,0.41378564374920046 L0.2744943933589097,0.4164964956137993 L0.27465284662662004,0.41630129069940125 L0.2750426113930704,0.4167663485542974 L0.27458434648104024,0.4168267839035025 L0.27502980898665985,0.4173861563733965 L0.2765646735977798,0.4178839014388984 L0.27609898367084007,0.41845252810229994 L0.27608331657079965,0.41968927243750187 L0.2762452830137798,0.420494875146197 L0.27689753082292956,0.42124414327950177 L0.28189772882621966,0.4195135926955018 L0.2847878783406603,0.4190057915676988 L0.2847397010727901,0.4187571184845993 L0.2850914016642596,0.4189733605732968 L0.28647168559545033,0.41871843295920286 L0.2933388216678301,0.41538916718400287 L0.29265642103611,0.41519207144440173 L0.2930030924144802,0.4146003840876986 L0.2922995227628702,0.4140553523046009 L0.2922232789464996,0.41345989045329645 L0.2944796784246302,0.411760103359498 L0.2954979594011,0.4117907085685033 L0.29374360427824,0.4102952314497017 L0.2946451988625398,0.40969242380749904 L0.2955662409854902,0.4077814191551994 L0.29767197425637004,0.406640745555201 L0.30038972455836976,0.40567069757859997 L0.3002226005344504,0.4037461065557011 L0.29973190753366996,0.4023502074568981 L0.29996140625751977,0.4013623140442988 L0.3048757724145501,0.4032884036477995 L0.30670299395595,0.4032633754274997 L0.3096099402670003,0.40126110103189916 L0.30910015423035997,0.4009971357562989 L0.3099568564364601,0.4001305562242976 L0.3111456463077804,0.3996421886792021 L0.31133538664269,0.3990829408368981 L0.3109974965755704,0.39868374531049966 L0.31135437200619975,0.39830360851850344 L0.3216187496168299,0.3935846428833969 L0.3225237446086098,0.3923185616232985 L0.32883574123165005,0.3907122153083975 L0.30250554055854995,0.3713835513297994 L0.2917455291981499,0.3658055617184033 Z" fill="none" stroke="black" stroke-width="0.002"/>
  <path title="Dordrecht" d="M0.6773608459012674,0.6795991601277223 L0.7134481500048402,0.6766912828800855 L0.7488643786351581,0.6779288548798448 L0.7650353996093404,0.6836499125422506 L0.7720915993887658,0.6846809138785233 L0.7853548871295208,0.6848016105739632 L0.8079782525973842,0.6815352180191425 L0.8350780765581538,0.680755007983258 L0.8712459309779312,0.682414382900113 L0.8833229033266816,0.6813726039801296 L0.8846425127035342,0.6835286036801307 L0.8596672675905257,0.697315655481475 L0.845984336413383,0.7012430457056951 L0.8361084413945576,0.7021609048633053 L0.8068756817583607,0.6996637150747205 L0.7971941386157297,0.700230036916615 L0.7735390182196333,0.7066756657716837 L0.7552396716033867,0.7183885960283405 L0.7407700002700217,0.7411817944505685 L0.7172813357791332,0.7561809469233864 L0.6932628947617063,0.7677183754178856 L0.6815975895349089,0.7715812735368814 L0.6752225921286978,0.7757906111693842 L0.6204038825593194,0.7858764497342534 L0.6316333092475643,0.7544415794521981 L0.6263426551427598,0.7363826400973466 L0.6274973491748934,0.7178364611083694 L0.621221576023089,0.6991963197573128 L0.6383304146809383,0.6960065546497063 L0.6650050975169304,0.6803030270932382 L0.6773608459012674,0.6795991601277223 Z" fill="none" stroke="black" stroke-width="0.002"/>
  <path title="Gouda" d="M0.6817846331203938,0.48059649854463515 L0.6672789960514116,0.47492166469768193 L0.6866671228693058,0.46964360930218163 L0.70603928983153,0.4598803027296299 L0.7161100245896277,0.4617263116650463 L0.7175814043615052,0.4646932649123272 L0.7198712276743837,0.46479918291423417 L0.7198480143223511,0.4735156257088562 L0.7344000312185468,0.47497985000388354 L0.7367826509102509,0.47725177702593413 L0.7436974367288922,0.47739193109950406 L0.7460166539038537,0.4830236126486014 L0.7509912776043484,0.4861012072277333 L0.7573298079709154,0.4986583065172212 L0.7454631769907163,0.4970920938129737 L0.7377333681179934,0.49315856615652365 L0.7372917996612616,0.4940648758593724 L0.7292522734855753,0.49251499761307116 L0.7227925996266302,0.4945179434018172 L0.7275697800600858,0.498417119306211 L0.7188612883276804,0.5016304376688865 L0.7072170691276236,0.49823773556448003 L0.6998809985429082,0.50276811646075 L0.6886845130836754,0.5037419593987593 L0.6840212749874821,0.5020423299692425 L0.6802294606847124,0.5034584264623021 L0.6707169442466929,0.49767389042256127 L0.6628102423314788,0.496754176780577 L0.6594545595404737,0.49471230505508146 L0.6707289212445309,0.4888735917008873 L0.6666065530818601,0.487029365709418 L0.6817846331203938,0.48059649854463515 Z" fill="none" stroke="black" stroke-width="0.002"/>
  <path title="Katwijk" d="M0.4401880562975897,0.29264441808822284 L0.4483780396508994,0.2874826713079415 L0.4512449343938849,0.2883304349575724 L0.4636016954623008,0.28405176691941847 L0.4661823007158796,0.28583709005251734 L0.4664624652738034,0.2870970750246684 L0.4556485814967628,0.29297001692702906 L0.4626747068182713,0.2965884862053869 L0.46041736403136113,0.29780091790502894 L0.46347148157370466,0.299798438678053 L0.461760583618668,0.30289351841211243 L0.46637030194612716,0.3031137659757377 L0.45862329489938514,0.3165442515400656 L0.43494683391939937,0.3191434908790072 L0.44583141588489106,0.3212005819122652 L0.4487961048596363,0.3244138082981394 L0.4453841412325694,0.33220486234380786 L0.44836828039258236,0.33794804479789065 L0.44047818036646635,0.3443470176236971 L0.425973996750896,0.3407701935734835 L0.41977153230044717,0.33765567059149504 L0.417786312912237,0.33852247285043546 L0.41159508489842533,0.33652082376497106 L0.40931917944700213,0.33065794518677194 L0.40480179320459975,0.33249759610940544 L0.37501571908681886,0.3133870790202451 L0.3600017737372001,0.3073226059188414 L0.39097559224996736,0.2747563130891848 L0.4194462084495907,0.28566075297986515 L0.42569636298951696,0.2837111144527711 L0.42942162082274216,0.2877355625968079 L0.4332773232825087,0.28649594397677447 L0.4354636233714144,0.28939709820752313 L0.43713763891177404,0.28880054980771774 L0.4401880562975897,0.29264441808822284 Z" fill="none" stroke="black" stroke-width="0.002"/>
  <path title="Krimpen aan den IJssel" d="M0.582310974485579,0.579440871715363 L0.5997772066856424,0.5734638912895988 L0.6121118635145573,0.5743744030594513 L0.6177039332520771,0.5689498597954454 L0.6430191078496046,0.5874308325857172 L0.6352251990042577,0.5899261013815149 L0.6214563278891099,0.5916699788430222 L0.6014637167637016,0.5930023039982402 L0.5967990120870201,0.5921815788429043 L0.5951733049815076,0.5929178797987902 L0.5967446445363542,0.5942364228671693 L0.5935109009736221,0.5958984114062886 L0.5922129822633924,0.594398827663575 L0.5887477071260534,0.5958125764346747 L0.5890985565667428,0.5976325063283738 L0.5826177854969936,0.595905504369604 L0.5763284544759522,0.5969682811369807 L0.5550875597286193,0.5943535427289177 L0.5492384357236224,0.5951178759297164 L0.5499012596214197,0.5932715144497536 L0.5676615951401773,0.5902040679651535 L0.5778681820066716,0.5849455402366956 L0.582310974485579,0.579440871715363 Z" fill="none" stroke="black" stroke-width="0.002"/>
  <path title="Lansingerland" d="M0.5047095086936038,0.4680694374313603 L0.5346656214023726,0.4504367480087055 L0.5453353623741224,0.4510637101414616 L0.5505330407377809,0.44369595504222303 L0.55780899431935,0.43825883859564385 L0.5652014368161877,0.4415037608608259 L0.5610596340680614,0.4579391391087526 L0.5634571698918451,0.4642230216627823 L0.5582179734216579,0.47109155219619936 L0.5548751472058537,0.49405141613192427 L0.5463392757044128,0.5084858432912327 L0.5480697987782159,0.5165723824077304 L0.5538548727110983,0.5224568112456041 L0.5525296874143484,0.5247347642592217 L0.5399513604142188,0.5301148617329332 L0.5356869130632846,0.5295849435611402 L0.5349851074123091,0.5317276989848452 L0.5210131054625924,0.5365474402718036 L0.5185864772972977,0.5397137161225203 L0.4957996879904618,0.5281555146654213 L0.49525804654052585,0.5325970066297714 L0.4690121503063711,0.5194508413361092 L0.46324098446115336,0.5224734880540325 L0.4600983987917253,0.5312175216081911 L0.45051351424854325,0.5341870932722941 L0.4466820759848904,0.5372140476182494 L0.4242215261732394,0.5207412711516497 L0.4472479201552497,0.5075909457692589 L0.45287764620338944,0.502729467534941 L0.44977590408963675,0.499497233615223 L0.4587281193540198,0.4977907887045063 L0.4588999803665006,0.4953556468795881 L0.4553889523114103,0.4932020071492573 L0.46156168109807894,0.4873485868016161 L0.45854683025316856,0.4843785048303886 L0.45719924409679535,0.4778311246485316 L0.46732368732518204,0.4745919373593921 L0.47738443962517696,0.46820842753048453 L0.5047095086936038,0.4680694374313603 Z" fill="none" stroke="black" stroke-width="0.002"/>
  <path title="Leiden" d="M0.46686794556936917,0.33007143634802816 L0.46850916706626844,0.3265179530204847 L0.4785969462343127,0.32041398324896875 L0.487126020334105,0.3230746585516471 L0.4878398505667638,0.3218462942103528 L0.4923822793946764,0.3246570705334406 L0.4961654101951316,0.32110871858353107 L0.49756222717052534,0.31601734978569596 L0.5038811400313286,0.31539423172155523 L0.5183538216725188,0.3175081667814865 L0.5184878966447561,0.32578395884900146 L0.515080714577496,0.32898409920925786 L0.5146992061583786,0.3389828609103489 L0.5208206995394953,0.34344898707906424 L0.5240376815088084,0.3526021339770935 L0.5155449872419116,0.35553639328783504 L0.5106765804367326,0.3591341246519235 L0.5132127683140766,0.36002585685584876 L0.4729754160765651,0.38104839072198615 L0.4729414399168066,0.3762968157527453 L0.46814928281369017,0.371449184358859 L0.4644922890054852,0.3726888312410068 L0.4692986168067641,0.3660694630856085 L0.465405524840266,0.3505571020876417 L0.4592872660479079,0.3503032833450561 L0.44960500863108877,0.35901573551740285 L0.4446780845107581,0.35938011734948816 L0.4439393118700039,0.3539587372771038 L0.4388651573835727,0.3467355160379171 L0.449000581170929,0.3373215634041884 L0.4541705402434122,0.32885954257968564 L0.46686794556936917,0.33007143634802816 Z" fill="none" stroke="black" stroke-width="0.002"/>
  <path title="Leiderdorp" d="M0.5231535898623596,0.3504320608194149 L0.5207409063494577,0.34333822511755585 L0.5146992061583786,0.3389828609103489 L0.515080714577496,0.32898409920925786 L0.5184878966447561,0.32578395884900146 L0.5183686835894772,0.31788374281497056 L0.528177798148052,0.3201492218504711 L0.5387791503252144,0.31986993080945325 L0.5418834720528052,0.32746117662691177 L0.55112145289905,0.3367625921116826 L0.5605923054348221,0.3332169970901262 L0.5623998181499434,0.33388112413759075 L0.5604901577572736,0.3358698958241533 L0.561633874694552,0.33918093379550385 L0.5714809100587104,0.346890973501651 L0.570467445295213,0.35714176633135253 L0.5661049645024958,0.36473597699865934 L0.5601213631691113,0.36809666886379944 L0.5467491960936384,0.35991405353376393 L0.5290590534224329,0.35749918433977257 L0.5231535898623596,0.3504320608194149 Z" fill="none" stroke="black" stroke-width="0.002"/>
  <path title="Leidschendam-Voorburg" d="M0.373514471174734,0.4077032015740798 L0.3721455850123796,0.4056190504821444 L0.40115906560948833,0.388130006957212 L0.42790258451118035,0.3985297577984923 L0.46684506453260166,0.3710201074791968 L0.4729414399168066,0.3762968157527453 L0.4729754160765651,0.38104839072198615 L0.4708257868728598,0.38229189807090336 L0.4904136584591896,0.4021416155713524 L0.4930180741866943,0.4122480878659971 L0.474274727390279,0.41473933589130496 L0.4756598606165934,0.41870369992312106 L0.45675207201338175,0.4211851698018023 L0.4208325154945962,0.43741995417832413 L0.4039235454746084,0.42215474039881684 L0.39709232272531203,0.425236797732758 L0.39462152526150795,0.42409308281406055 L0.38865095379415937,0.42702621518385087 L0.38458266358515125,0.42376572673714463 L0.3560111208375769,0.43843253663599313 L0.36082611105521956,0.44153166387312837 L0.35962561610658117,0.4427440811238412 L0.35734978736060974,0.4437452897264862 L0.35228147179326896,0.4406059045611599 L0.3480036007654208,0.44350188781488953 L0.34219573201002795,0.43886544082641876 L0.35551870246318007,0.43196019908359773 L0.33521319178541376,0.4249996006160828 L0.373514471174734,0.4077032015740798 Z" fill="none" stroke="black" stroke-width="0.002"/>
  <path title="Maassluis" d="M0.23216665742636966,0.57929055391822 L0.22370230117173406,0.5717532369742742 L0.2127176924755192,0.5662725380127398 L0.22829203108517682,0.5520084993189727 L0.23176702181690434,0.5570776483225899 L0.23907594934718812,0.5563669479956914 L0.2610489178522153,0.5733184895358363 L0.27096016900954467,0.5765225833048149 L0.2926110090460252,0.5787636817331858 L0.26757121107334214,0.5946649589286821 L0.24111959939089989,0.5851286227788179 L0.23216665742636966,0.57929055391822 Z" fill="none" stroke="black" stroke-width="0.002"/>
  <path title="Midden-Delfland" d="M0.2765094474536678,0.5349189983054217 L0.2714557762675449,0.5301401003302075 L0.27322469120676196,0.5263569767209475 L0.2781610624228179,0.5295668268584706 L0.2803150342631344,0.5285485976542859 L0.285091555751956,0.5301104240015917 L0.28935087309886764,0.5281289900484083 L0.2875534612388648,0.5266446331131363 L0.30314326575938466,0.5200998496404949 L0.29876641730030773,0.5178930440384804 L0.2963245989193313,0.518235223873873 L0.29562946341687724,0.516402879934148 L0.29191433311341264,0.5170302517652985 L0.2886837861257483,0.5111747397457904 L0.2840899761346396,0.5143590203270278 L0.2803216410440603,0.5096525391930271 L0.2668819882969382,0.5066741977951352 L0.2652451754315992,0.504163813263041 L0.3193208416984952,0.48007831936818945 L0.3260593281447104,0.4874999350812459 L0.3254707169178266,0.48913076890057283 L0.32063573787635224,0.49067796869842084 L0.32324442243216556,0.49566438839980975 L0.33265569348410384,0.4921171616807385 L0.3363708563888226,0.49524681997085906 L0.3384532269057061,0.4943092670982949 L0.34114250115313105,0.4972896396559179 L0.3358342917639874,0.49894468740819065 L0.33771691592929365,0.5011975197573051 L0.33152500123165307,0.5021478292811565 L0.33310954289294337,0.506828203393269 L0.3257323448261191,0.5080487757011625 L0.32411192780406584,0.5101413974353477 L0.33185520297507765,0.5155102719860949 L0.3327236419356048,0.5195433509101832 L0.3382273237890834,0.5258222853153782 L0.35662588140512863,0.5227037441254865 L0.3595402323710992,0.5298646037222952 L0.36817383922117486,0.528418241914963 L0.36917546462479134,0.5311295353268761 L0.3863028788099756,0.5277859494221744 L0.3836224811820319,0.5241841335780038 L0.3938098116871487,0.5224965250751126 L0.4030379367025114,0.5335501652808432 L0.39356412737389057,0.5375283661705623 L0.38977941362406643,0.5348735997258274 L0.3635098085346664,0.5391294122830459 L0.3670711792315027,0.5447800932826894 L0.33861964059980476,0.5519290136686124 L0.3238734673782284,0.5583599976652494 L0.3228932058057987,0.5572877640411846 L0.2926110090460252,0.5787636817331858 L0.27096016900954467,0.5765225833048149 L0.2610489178522153,0.5733184895358363 L0.24031715913246465,0.5571278879818067 L0.24127031442747615,0.5562916063294878 L0.23396339203015337,0.549971418626086 L0.2339573865622464,0.5466686141109776 L0.25362903994392827,0.5411332536050679 L0.2634485726789748,0.5399064060403234 L0.2765094474536678,0.5349189983054217 Z" fill="none" stroke="black" stroke-width="0.002"/>
  <path title="Nissewaard" d="M0.19210612999999999,0.6568309000000028 L0.19760995000000037,0.6529984000000013 L0.19825723000000028,0.6501108000000002 L0.18527251999999983,0.6502923999999979 L0.2393831500000001,0.6270140999999967 L0.2661049200000001,0.6353429999999989 L0.3355538400000002,0.6356983000000014 L0.34831531000000027,0.6480406000000016 L0.3675993999999996,0.6556168999999983 L0.38514594000000013,0.6579359999999994 L0.41280757,0.6570418000000018 L0.43248233,0.662953899999998 L0.42100267999999996,0.6701255999999987 L0.39713182000000025,0.6687249000000008 L0.3690822699999998,0.6830185999999969 L0.3545278300000003,0.6808087 L0.3381504900000003,0.6832281000000009 L0.33069815999999985,0.6870523999999989 L0.3073666099999999,0.6908154999999994 L0.2964128500000003,0.6977935000000031 L0.2685960500000002,0.6951608999999976 L0.26321291,0.6973428000000013 L0.24663993999999967,0.7146524999999997 L0.2375626000000004,0.7172283000000022 L0.22283898999999963,0.7120942000000028 L0.21324684000000005,0.714732699999999 L0.20841093000000033,0.7120559999999969 L0.18627634999999998,0.7075061999999974 L0.17311473999999993,0.7077658999999983 L0.1502825699999999,0.6949825000000018 L0.1592942199999996,0.6766282999999973 L0.16818981000000033,0.6738843999999986 L0.1866383599999999,0.6645455000000027 L0.18692887999999996,0.6611649000000028 L0.19210612999999999,0.6568309000000028 Z" fill="none" stroke="black" stroke-width="0.002"/>
  <path title="Oegstgeest" d="M0.48968365295486294,0.31840546011943616 L0.49432931400409874,0.3183301624133321 L0.4952560363411127,0.31606114497798643 L0.49756222717052534,0.31601734978569596 L0.493057618438848,0.32446228813174827 L0.4878398505667638,0.3218462942103528 L0.487126020334105,0.3230746585516471 L0.4785969462343127,0.32041398324896875 L0.46850916706626844,0.3265179530204847 L0.46686794556936917,0.33007143634802816 L0.4541705402434122,0.32885954257968564 L0.44836828039258236,0.33794804479789065 L0.4453811037030704,0.33235180257842956 L0.44865620358164104,0.32641559078396654 L0.44809309808383624,0.32281950678510185 L0.44524763780118093,0.32100889686102363 L0.43494683391939937,0.3191434908790072 L0.45862329489938514,0.3165442515400656 L0.46637030194612716,0.3031137659757377 L0.461760583618668,0.30289351841211243 L0.4633082545038443,0.29992518454118766 L0.4676599820154328,0.2980670305035602 L0.4715047959546217,0.29840261360536147 L0.47842124077743975,0.2952010755900929 L0.48027175304407166,0.2980505682242267 L0.48672847773016503,0.2958150024319224 L0.488032478552082,0.29707703927005724 L0.49144718454418435,0.2963127989672856 L0.4934390401050406,0.30503269303615355 L0.48776405210818474,0.30947883796971354 L0.4912011270214691,0.31405328876261507 L0.48968365295486294,0.31840546011943616 Z" fill="none" stroke="black" stroke-width="0.002"/>
  <path title="Pijnacker-Nootdorp" d="M0.3939284274038277,0.4669460862787247 L0.3874361732368454,0.46135308631021843 L0.37985819689384304,0.46404771780585463 L0.3726404312856548,0.458994276417819 L0.39444499823950707,0.4459461007726233 L0.3985495383233104,0.4487821312181097 L0.4016247773079211,0.44646358538772546 L0.4505641380822638,0.45078979415535514 L0.45764380653775394,0.46138134193274283 L0.4707436788530144,0.4595222914083905 L0.4767902542182956,0.46831545434718436 L0.46732368732518204,0.4745919373593921 L0.45714644597903575,0.4779092125152786 L0.45854683025316856,0.4843785048303886 L0.46156168109807894,0.4873485868016161 L0.4553889523114103,0.4932020071492573 L0.4588999803665006,0.4953556468795881 L0.4587171555210148,0.49780356718310514 L0.44977590408963675,0.499497233615223 L0.45287764620338944,0.502729467534941 L0.4472479201552497,0.5075909457692589 L0.42444629632379005,0.5203889791577936 L0.4275167566680187,0.5237904294798525 L0.4079108767272217,0.531801395760354 L0.4011523285560763,0.5216539987027531 L0.3970301284340554,0.5210259795418111 L0.3859157328273364,0.49516474684558887 L0.3886556835853092,0.49450645917455205 L0.3883455228436272,0.49055236000901914 L0.3945159408135739,0.4887443548204544 L0.38624489994701783,0.4766918094706014 L0.3797352885219212,0.4732673190920309 L0.3939284274038277,0.4669460862787247 Z" fill="none" stroke="black" stroke-width="0.002"/>
  <path title="Ridderkerk" d="M0.5699706960426933,0.6473794635885426 L0.565961256722626,0.6479136913555408 L0.5641058248812421,0.6465266167885133 L0.5492533022449804,0.6257991091037312 L0.5615902967329047,0.6217684369338414 L0.5691461473344388,0.6218196450599223 L0.5763284544759522,0.5969682811369807 L0.5830204223965474,0.5987872969053072 L0.5936233538093747,0.6053997750412918 L0.6195721707800139,0.610477301748368 L0.6390218972442598,0.6363598571321276 L0.6473307431091273,0.6428775575093724 L0.6365159777202809,0.6503375774464928 L0.6273186416040284,0.6453470841253477 L0.618715265713961,0.6487620875161966 L0.6048853619164856,0.6516141220052774 L0.600154903937776,0.6612699231508969 L0.5710584464009374,0.6528832265713262 L0.5699706960426933,0.6473794635885426 Z" fill="none" stroke="black" stroke-width="0.002"/>
  <path title="Rijswijk" d="M0.2981098512422591,0.4551785003099127 L0.31988199236422776,0.4480064105022379 L0.32136054351173016,0.44537919110644 L0.340047184927073,0.4381941068090711 L0.3467996078543498,0.4431496510857258 L0.34450385671336736,0.4459434926482828 L0.3526387081515443,0.45090482599572823 L0.3460627042884461,0.4559818303596117 L0.35779028245524724,0.4731368044073463 L0.3259562412990684,0.48720668805115963 L0.3193894678153706,0.48008335978676797 L0.30981926198591836,0.48436596254095576 L0.29792993092026165,0.47058997402865543 L0.2909516896857438,0.45842702610480757 L0.2981098512422591,0.4551785003099127 Z" fill="none" stroke="black" stroke-width="0.002"/>
  <path title="Rotterdam - Overschie" d="M0.45662385452214416,0.5504748413971825 L0.4566228184415362,0.5504661709594529 L0.45886696903698176,0.5346606052390115 L0.45789046306458747,0.5327113623872037 L0.4545206108892934,0.5299682927924536 L0.4446493529030944,0.5343866836323272 L0.4442261139750059,0.5343667737382845 L0.443976418548643,0.5342129537504761 L0.4439702020649996,0.5342158438963835 L0.43373786998715147,0.5269596509014178 L0.43369021027921484,0.5269166198401081 L0.43245416611468723,0.5253822734898748 L0.4322386613483653,0.525049264455717 L0.4249260044219323,0.5197073114343311 L0.4043463353188237,0.5288070963917733 L0.39983679447548237,0.5306927560335879 L0.3897199853853506,0.5342890609260706 L0.38971635910322444,0.5342848862708678 L0.38932938299639197,0.5344037033804554 L0.38905585771606077,0.5344094836722704 L0.38887091732765544,0.5342858496528393 L0.3874820512735484,0.5316346224725237 L0.3862781256078476,0.5316346224725237 L0.3747558731738918,0.5334566989043452 L0.38410598261461093,0.5500210884895012 L0.40017196655194986,0.550433415972492 L0.4034568601174433,0.5500955900284836 L0.40824355252324107,0.5483152601486836 L0.41119068381074975,0.5515143305423749 L0.4117341080892869,0.556231369792819 L0.41336386288459437,0.5591337185398757 L0.4135436228699634,0.5594969135424108 L0.4176195639791427,0.5630874381430786 L0.4176376953897716,0.5630790888326729 L0.42840257289977934,0.5713911484663114 L0.4419814453392572,0.5640524257492814 L0.44183691209453624,0.5639313607484411 L0.44153075027507516,0.5637569886119422 L0.44762704856851965,0.561615390493543 L0.45141754947038315,0.5590588958735694 L0.4515641548763183,0.5590026985920105 L0.4571755674455398,0.5579317389691454 L0.45662333648184017,0.5504799794343569 L0.45662385452214416,0.5504748413971825 L0.41787495784884676,0.5440317427845542 L0.4121252285185486,0.5387880547240655 L0.4116082242954979,0.5366641186084422 L0.42521507091137334,0.5312470217934262 L0.4315734975984684,0.5306458714443991 L0.43780345029025725,0.5365687437934525 L0.41787495784884676,0.5440317427845542 Z" fill="none" stroke="black" stroke-width="0.002"/>
  <path title="Rotterdam - Feijenoord" d="M0.519137850125742,0.6078429531770766 L0.5191829196321596,0.6078365306306139 L0.5186980339079366,0.6072732733057222 L0.5186918174242923,0.6072665296319357 L0.5186918174242923,0.6072665296319357 L0.5100990829075212,0.5972833234083836 L0.5145832397759822,0.5957724193527412 L0.5140315268525875,0.5886241251383666 L0.5100586757638359,0.5841742638208203 L0.5048798268481685,0.5819751839115668 L0.504853406792682,0.5819889923864636 L0.49795051974644267,0.5806926013827223 L0.4917091701679741,0.582458159405661 L0.4833340125787382,0.5882859780670415 L0.4833536981102773,0.588296575268707 L0.4828009491062746,0.5890072300349445 L0.4825942510251151,0.5891132020515997 L0.482322279865695,0.5890843005925106 L0.480737076536502,0.5884500741291916 L0.4801040312854319,0.5893476249975294 L0.48005637157749614,0.5893941884593943 L0.4760078866044104,0.5924448980297683 L0.4768605809442308,0.5940328726429769 L0.4769279261837065,0.5941860503761447 L0.46456696649812823,0.5985639791732922 L0.46544141853070276,0.5999425787717811 L0.4732042524810147,0.602993288342148 L0.4893810970433359,0.5996728318202926 L0.4896722356939911,0.5996998065154386 L0.4923204577262901,0.6008324225843609 L0.49274576881559273,0.6015674830271536 L0.4910512589823286,0.604921015663308 L0.49127867867563424,0.6095002912921004 L0.49127349827259703,0.6095115307484065 L0.49127349827259703,0.6095140997669972 L0.4912149597182838,0.609993863987853 L0.48969347534644125,0.6110400968068248 L0.48948315098315653,0.6145442381575563 L0.4949401875418875,0.6165060049749655 L0.4950220379098651,0.6165480726543038 L0.502890552082123,0.6219651694693198 L0.5105243939968238,0.6172336794893312 L0.5107160689091774,0.6171752343165124 L0.5186969978273286,0.6165663769117273 L0.5197797020619737,0.6131518300841705 L0.5200433845765353,0.6129912664225756 L0.5228817274002759,0.6126878011021546 L0.519137850125742,0.6078429531770766 Z" fill="none" stroke="black" stroke-width="0.002"/>
  <path title="Rotterdam - Kralingen" d="M0.5339890295510026,0.5869822011348589 L0.5326846040663922,0.5836183924243699 L0.5326757973812297,0.5836347699178503 L0.5321556849163578,0.583372730022127 L0.5322644733801258,0.5785879329064869 L0.5322867491131831,0.5785188905319956 L0.5353426688644607,0.5731746896193499 L0.5341304545539014,0.5727716748287364 L0.5339683079388564,0.5726454717907217 L0.5340024985988974,0.5724845870017958 L0.5357363794952406,0.5706808148273979 L0.5358954178684634,0.5706480598404298 L0.5363839298748125,0.570560713208522 L0.5335134685522451,0.5608392257533765 L0.527386605880884,0.5491119770375334 L0.5272265314270541,0.5490869291063234 L0.5251579964945483,0.5496912907285818 L0.5249212520757771,0.5497314316439841 L0.48407688237418345,0.5548142349155469 L0.48506064091083,0.5564002827648196 L0.4850735919184208,0.5565264858028343 L0.4837510350231833,0.5593238259152074 L0.4854776633552742,0.5619333065435086 L0.4880445530598987,0.5632929596299263 L0.4851595866088285,0.5652987208906168 L0.4837702025144184,0.5680186693180929 L0.48375258914409436,0.5680193115727405 L0.48286466806362416,0.5730510555999189 L0.49491324944609705,0.574432866471632 L0.49562089250089336,0.5754055611336 L0.4981851920039997,0.5803088542314967 L0.5053377744766019,0.5816742876097365 L0.505431021731261,0.5817031890688185 L0.5105565124956506,0.5838939196676733 L0.5146459226527247,0.588468699513939 L0.514687883917321,0.5885521926179749 L0.515246849404968,0.5958000363025349 L0.5191435485690814,0.5981494037990416 L0.524810909491098,0.5990957660205041 L0.5404743761124937,0.5954297764988894 L0.5339890295510026,0.5869822011348589 Z" fill="none" stroke="black" stroke-width="0.002"/>
  <path title="Rotterdam - Centrum" d="M0.49502618223229433,0.5755902093444405 L0.49443406216521346,0.5747960614741743 L0.48241034671731686,0.5734145717297778 L0.4771263356200075,0.5724393080492263 L0.47343996081917883,0.5721339159648693 L0.4734347804161425,0.5721043722511325 L0.46691368907369846,0.5722350710716739 L0.4596725217091695,0.5736310115456149 L0.4516750155013014,0.5742347309132256 L0.4517692988365667,0.5750433295130364 L0.45176670863504853,0.5750847549377269 L0.4578650790897081,0.5746871993116045 L0.4580520916393285,0.574730872627562 L0.45973675870682307,0.5754957979114153 L0.4598704131051674,0.5756525080451382 L0.46040865698066735,0.5867474570616054 L0.46026567785685835,0.5867920937595272 L0.4544159667479546,0.5890072300349445 L0.4547314532928821,0.5896430621348756 L0.45969272528101257,0.5902194856800094 L0.46063970295609913,0.5919901817401225 L0.4605039763965406,0.592227173704643 L0.45983104204208924,0.5924869657091065 L0.46344851748253113,0.5984185084958824 L0.46402509634050215,0.5982842772747858 L0.4761379147206286,0.5939834190352045 L0.47532303732297443,0.5924673769423947 L0.4753810578369846,0.5922718104025648 L0.47943420517280266,0.5892146782857282 L0.47944767422069834,0.5892278445059773 L0.47948393704195436,0.5891764641342689 L0.47949585196893807,0.5891677936965394 L0.4794932617674199,0.5891639401686604 L0.48028741755292703,0.5880644002140372 L0.48049204347287233,0.5879520056509193 L0.4807723032771509,0.58797769583677 L0.48237304781545376,0.5886212349924591 L0.48288279947425305,0.5879876507837878 L0.48293978390765524,0.5879381971760154 L0.4912610653053102,0.5821534095759446 L0.49136467336604106,0.5821039559681722 L0.4975179560928886,0.5803621613671481 L0.49502618223229433,0.5755902093444405 Z" fill="none" stroke="black" stroke-width="0.002"/>
  <path title="Rotterdam - Noord" d="M0.48499070546983614,0.5622110816780719 L0.48490315665851824,0.5621372223937371 L0.48310089444209225,0.5594124570564105 L0.48308794343450145,0.5592772624533424 L0.4844079101282208,0.5564828124868768 L0.4834262237527893,0.5549063984573053 L0.4782059316128304,0.5557461464074649 L0.4781577538645898,0.5557641295375646 L0.46497673637832193,0.5574057324137485 L0.4649803626604472,0.5574227521618766 L0.4576340331142763,0.5582894748071894 L0.45758119300330335,0.5582795198601715 L0.4518413064387756,0.559376811923535 L0.4480761895117906,0.5619156445407327 L0.44799848346624227,0.5619551432014802 L0.44258185405119654,0.5638652085198643 L0.44259894938121747,0.5638790169947612 L0.4432817265014384,0.5638912198330388 L0.42879990981268534,0.5717158081900635 L0.4334622725456052,0.575720587037658 L0.43741699222372876,0.5753901470220839 L0.437583283161203,0.5753734484012796 L0.4510839315148276,0.57484101929942 L0.4509922383810805,0.57407159823304 L0.4512844131123437,0.5738535527805908 L0.45952643434353835,0.5732331347921686 L0.46675827698260086,0.5718371943182348 L0.46685152423725906,0.5718269182438931 L0.47394297795403073,0.5717081011343055 L0.4767056868934372,0.5719839495049328 L0.48221918984526724,0.5729524695116979 L0.48307551046721287,0.5680395425941 L0.4830718841850876,0.5680331200476374 L0.4830905336360196,0.5679923368775945 L0.48455503357445995,0.565133982573812 L0.48462859529757907,0.5650546641249861 L0.4871006836266343,0.5633314949087094 L0.48499070546983614,0.5622110816780719 Z" fill="none" stroke="black" stroke-width="0.002"/>
  <path title="Rotterdam - Charlois" d="M0.5111211764266379,0.6282631185318621 L0.5078077906444429,0.6247747124199705 L0.5026408566557601,0.6224025448835135 L0.4945630542008246,0.6168425464096785 L0.4888024460241498,0.6147751287029379 L0.4890376363220108,0.6109524290475932 L0.4891194866899884,0.6108275105188739 L0.4905228578725973,0.6098246298885286 L0.49060833452270103,0.6092488485980354 L0.490391793675772,0.6048985367506816 L0.4904114792073111,0.6048249985936707 L0.4920593654132466,0.6016137253616947 L0.49179412877777384,0.601112445610184 L0.48943134695279067,0.6000938297410059 L0.47326434515623905,0.6034117172442777 L0.4729814951504414,0.6033873115677153 L0.4648969581715585,0.6002174637604369 L0.4639655217055818,0.5987335343999405 L0.46338531656548554,0.5988703346396207 L0.46335268002635477,0.5989037318812365 L0.46328637086748614,0.5988854276238129 L0.4561488115636898,0.5997572883062929 L0.455936933079494,0.6035555822850682 L0.45862504421517425,0.6040687437475398 L0.4588270799336005,0.6041753580188427 L0.45883795877997713,0.6043346371711493 L0.45308201296603556,0.6136604957641154 L0.4530840851272506,0.6136604957641154 L0.44871337908528997,0.6209504071280207 L0.449399264447333,0.6210904186409323 L0.4496235758988165,0.6212660752867194 L0.45086428242607646,0.6282406396192428 L0.45060370815333695,0.628462538599571 L0.4479523778792167,0.6288042180714513 L0.4361115306585104,0.6330341071726053 L0.4414960415747293,0.6338520184647933 L0.46087489325395925,0.6375562221378672 L0.46675931306320795,0.6384492772236854 L0.4754846658977163,0.6375700306127712 L0.47689321748336155,0.6340032694340181 L0.4771123485318087,0.6338565142473129 L0.4774485566888824,0.6337874718728287 L0.49050628058288037,0.6310672023180217 L0.490608852563005,0.6310578896256516 L0.5118899482372656,0.6310521093338366 L0.5111211764266379,0.6282631185318621 Z" fill="none" stroke="black" stroke-width="0.002"/>
  <path title="Rotterdam - Prins Alexander" d="M0.5951426513171949,0.5213479509285435 L0.5993387777768229,0.509273563576329 L0.5951426513171949,0.5030115807739861 L0.580896542966606,0.507122010510912 L0.5815699953613613,0.5094983527025718 L0.5794978341467303,0.5103653964752013 L0.581259171179167,0.5131592041870192 L0.581259171179167,0.5157603355049147 L0.5732813505028371,0.5179118885703389 L0.5763895923247837,0.5228572493475738 L0.5802230905718515,0.5209304854083925 L0.5805857187844117,0.5211552745346282 L0.5805857187844117,0.521797529181022 L0.5741620190190551,0.525008802412998 L0.5689816159824774,0.5259079589179478 L0.5660287862516284,0.5264538753673804 L0.5566522567554228,0.528894443023681 L0.5537512310549388,0.528894443023681 L0.5534922109031104,0.5288302175590402 L0.5476901595021433,0.5252335915392337 L0.5404375952509346,0.5279631737864108 L0.5358270365483806,0.528894443023681 L0.526864939295101,0.5316561380031786 L0.523963913594617,0.5335186764777191 L0.5233940692605943,0.5338076910686027 L0.5282118440846109,0.5457215147592152 L0.5281600400542459,0.5458820784208172 L0.5266577231736376,0.5471987004459251 L0.5276419997505881,0.5488043370619096 L0.5278492158720507,0.54883644979423 L0.5281600400542459,0.5488685625265504 L0.5342729156374073,0.5606860480202087 L0.5345837398196016,0.5606218225555679 L0.5345837398196016,0.5606218225555679 L0.5342729156374073,0.5606539352878883 L0.537329353428988,0.5709942350948367 L0.536914921186062,0.5710584605594775 L0.5363968808824042,0.5711547987564387 L0.5349463680321627,0.572664097175462 L0.5360860567002099,0.5730494499632997 L0.5362414687913066,0.5733063518218628 L0.5330814229389942,0.5787976290485304 L0.5329778148782625,0.5831970733763328 L0.5334440511515552,0.5834860879672092 L0.5347391519106992,0.5870827139870229 L0.5412664597367876,0.5955604753194308 L0.5472757272592172,0.5943723042235973 L0.5486744360790929,0.5926382166783313 L0.5501249489293354,0.5907435654714703 L0.5502803610204321,0.5906472272745091 L0.5560824124213992,0.5888810269969227 L0.5560824124213992,0.5872111649162974 L0.5547355076318894,0.5847063717953631 L0.5546318995711577,0.5844173572044866 L0.5534404068727445,0.5828759460531359 L0.5492960844434824,0.5854449646387181 L0.5463950587429993,0.5927987803399333 L0.5461878426215359,0.5929593440015282 L0.5416808919797136,0.5938585005064851 L0.5413182637671525,0.5937942750418443 L0.539867750916911,0.5928951185368945 L0.5397641428561792,0.5927666676076129 L0.5397641428561792,0.5927345548752925 L0.5366040970038668,0.5875965177041351 L0.535257192214357,0.5854128519063977 L0.535257192214357,0.5853486264417569 L0.535257192214357,0.5836787643611316 L0.535257192214357,0.5836787643611316 L0.5353089962447228,0.5797288982858078 L0.5356198204269171,0.5795362218918854 L0.5369667252164279,0.5795362218918854 L0.5372775493986222,0.5795362218918854 L0.5374329614897198,0.5795362218918854 L0.5374329614897198,0.5795362218918854 L0.54613603859117,0.5795362218918854 L0.553647622994208,0.5788939672454916 L0.5563932366035935,0.5786049526546151 L0.5602785388810272,0.577031428770951 L0.560796579184685,0.5767745269123878 L0.5638012129458998,0.5750083266348085 L0.5651999217657764,0.573242126357222 L0.564526469371021,0.5701271913222072 L0.563697604885169,0.5667874671609567 L0.5621434839741948,0.5631587284088297 L0.5621434839741948,0.563094502944189 L0.5621434839741948,0.5630623902118685 L0.5621434839741948,0.5630623902118685 L0.5606929711239532,0.5575390002528735 L0.5609519912757825,0.5573142111266378 L0.5669612587982122,0.5564150546216879 L0.5676865152233335,0.5563508291570471 L0.5726597021384476,0.5555480108490514 L0.5726078981080818,0.555515898116731 L0.5726078981080818,0.5553874471874565 L0.5727115061688135,0.5550984325965729 L0.5727115061688135,0.5548094180056964 L0.5668058467071155,0.5502494100162991 L0.5653035298265072,0.5483868715417515 L0.564940901613947,0.5478088423599985 L0.5619880718830981,0.5433130598352349 L0.5622470920349265,0.5432809471029145 L0.5613146194883427,0.5409367176435751 L0.5613146194883427,0.5408724921789414 L0.5622470920349265,0.538945728239753 L0.5623507000956582,0.5388493900427989 L0.5639048210066315,0.5379502335378419 L0.5643710572799234,0.5379502335378419 L0.5672202789500416,0.5397164338154283 L0.5684635756788197,0.5397164338154283 L0.5711055812274743,0.5389778409720734 L0.5714164054096695,0.5388493900427989 L0.5759233560514918,0.5370189643005716 L0.5759751600818577,0.5369868515682512 L0.5818808195435565,0.5342251565887537 L0.5850408653958681,0.5322341671849316 L0.5856107097298917,0.5319772653263755 L0.5856625137602576,0.5320093780586959 L0.5912055450093963,0.5294082467408003 L0.5915681732219564,0.5294082467408003 L0.5922416256167118,0.5294082467408003 L0.6019807833254776,0.5259721843825886 L0.5951426513171949,0.5213479509285435 Z" fill="none" stroke="black" stroke-width="0.002"/>
  <path title="Rotterdam - Delfshaven" d="M0.4589835281053052,0.5923164471004867 L0.45929746052932163,0.5922149708663582 L0.4599330959819099,0.591966097190884 L0.459176757138569,0.5905611651518967 L0.4545698247181411,0.5900431867795746 L0.4537088417334614,0.5889764018119124 L0.4536389062924675,0.5888100578585025 L0.45976835916534675,0.5865014735320315 L0.45921716428225423,0.5757677927541636 L0.45776198906928034,0.5751049859590864 L0.4511673360037163,0.5754970824207106 L0.45116215560067996,0.5754257921549595 L0.45110620724788486,0.5753111497005818 L0.45110620724788486,0.57525077776382 L0.43749884259170635,0.5757944463219928 L0.43403833336327224,0.5761393370671044 L0.41334624951427035,0.5775824832575509 L0.4133669711264165,0.5776332213746187 L0.4133633448442904,0.5777497905929394 L0.41191594023587097,0.5804385896700737 L0.41191594023587097,0.5813823828729454 L0.41184186047244786,0.5815085859109601 L0.41139323756948,0.5818586146932461 L0.4093350634430477,0.5838630914446483 L0.4094547307531933,0.5838711196277231 L0.40852329428721657,0.5850686034159267 L0.40742608492406873,0.5877907997346696 L0.4104358990883208,0.5933145108209885 L0.41044522381378634,0.593423694110875 L0.40919467452075686,0.5972332275459635 L0.41995747986955045,0.5958321490348553 L0.42003881219722494,0.5958282955069762 L0.4314367349583028,0.5963395302055048 L0.43145279420771665,0.596373890829085 L0.4469038643046135,0.5989040530085603 L0.4558146755678303,0.5993831749747685 L0.46280821966721053,0.598529618549712 L0.4589835281053052,0.5923164471004867 Z" fill="none" stroke="black" stroke-width="0.002"/>
  <path title="Rotterdam - Pernis" d="M0.38250057571357576,0.6194761115872183 L0.3844551417792763,0.6171675272607544 L0.38483072099942817,0.616665605254596 L0.3849591949947353,0.616576652986069 L0.3850534783300006,0.6165416501078411 L0.3899815957386972,0.6145089141520046 L0.391527946045116,0.6119472814948637 L0.3907457051865926,0.6107488343246885 L0.3901271650640252,0.6100079935900737 L0.3901271650640252,0.6098230242519094 L0.39210245274187194,0.6073179100036512 L0.392446949543805,0.6068525965123328 L0.3851275580934237,0.6043169751683735 L0.3805118189878334,0.6036821064504068 L0.37940528489922,0.6035478752293102 L0.37892816977955146,0.6047652689115566 L0.378632886806467,0.6057353945549337 L0.37825886170722534,0.60592421742097 L0.3723500940037052,0.6057485607751829 L0.37997202099142235,0.6200204224000387 L0.38250057571357576,0.6194761115872183 Z" fill="none" stroke="black" stroke-width="0.002"/>
  <path title="Rotterdam - Hillegersberg Schiebroek" d="M0.525800366471084,0.5469376239321662 L0.5272892143037966,0.5456206807797344 L0.5226392845381644,0.5341050549698778 L0.5179582723543126,0.537045296741077 L0.5178106308677703,0.5371583335588426 L0.5171532377224288,0.537126541953846 L0.5113967738681833,0.5353092824318679 L0.5113055987747401,0.5352652879885937 L0.5068105630599016,0.5324804718418221 L0.5067489162637662,0.5324274858334945 L0.5053217152271889,0.5306590376646483 L0.4952955631901963,0.5261716044502904 L0.49500546062014816,0.5261112325135286 L0.49486351757694536,0.5260498971948024 L0.4939787047382982,0.5254615919387007 L0.4939787047382982,0.5295456892351282 L0.49388338532242493,0.5297807544357056 L0.48854446195292844,0.5276719113042674 L0.46826888250806675,0.5168823543721643 L0.4658734641439537,0.517590761247142 L0.4648783087206265,0.5179327618463461 L0.4625787278126898,0.5186806673820712 L0.45964454753277195,0.5213129480503156 L0.45839658844126063,0.5245707847441565 L0.4581826377958498,0.5249744417894107 L0.4581826377958498,0.5277322832410292 L0.458080065815726,0.5278783961730866 L0.4550749140142072,0.5297422191569225 L0.45845098267314466,0.5324910690434876 L0.4585048588647247,0.532560111417979 L0.4595176276583759,0.534576469880335 L0.45953265082718175,0.5346471178914385 L0.4573004151587208,0.5504902555086986 L0.4573418583830131,0.5504941090365776 L0.45782467194602283,0.5577920485835577 L0.4645483170471971,0.5570406106472703 L0.4779344784937134,0.555366895038766 L0.4822155635631411,0.5546783980578311 L0.5249735741464461,0.5492995153942815 L0.5267758363628721,0.5487664440377742 L0.5257604773677027,0.5471290158167932 L0.525800366471084,0.5469376239321662 Z" fill="none" stroke="black" stroke-width="0.002"/>
  <path title="Rotterdam - Hoogvliet" d="M0.38098582586567975,0.6307081819706895 L0.379713518879897,0.6298658650019462 L0.37962441594766716,0.6297236055977677 L0.37970678435594873,0.6278784079986721 L0.3796409932373841,0.624775675801942 L0.37840753927437554,0.6209635733482699 L0.35495533668748447,0.6214886165216953 L0.34044813602385204,0.6230586080048113 L0.32327354583668644,0.6267990990654084 L0.32772921048844683,0.6337033365141522 L0.3277639191887918,0.6337033365141522 L0.328111006192243,0.6338513762101456 L0.33145133007022753,0.6391085516182073 L0.33268737423475514,0.6393882535167137 L0.3329500206687097,0.6395125297907853 L0.3373699405395181,0.6450738127739157 L0.3463050996970072,0.6504494841642412 L0.36511669724373164,0.6559487895739906 L0.3752728773969425,0.6576973278488012 L0.3768508281618841,0.6469469484501289 L0.37669800627230465,0.6378381719276405 L0.38098582586567975,0.6307081819706895 Z" fill="none" stroke="black" stroke-width="0.002"/>
  <path title="Rotterdam - IJselmonde" d="M0.5753291638231968,0.5963311808950991 L0.5681040557080816,0.5953934891113661 L0.5533191854416888,0.5935890746823205 L0.5474223326651524,0.5944866255506582 L0.5410442204465182,0.5957354897105702 L0.5249445638894414,0.5995035977209682 L0.5247435642516223,0.5995074512488472 L0.5188917809815043,0.5985309030590003 L0.5187498379383024,0.5984843395971424 L0.5148671258623869,0.5961449270476464 L0.510979233383436,0.5974413180513949 L0.5198693230345066,0.6077681305107703 L0.51985844418813,0.6077719840386493 L0.5236629321781923,0.6127558800946673 L0.5238535710099388,0.6129861283854012 L0.5203821829351281,0.6133711600459151 L0.519299478700483,0.6167905237833224 L0.5190166286946862,0.6169549409727964 L0.5109113701036563,0.6175715054333395 L0.5033832084109022,0.6222397333306517 L0.5082527872652847,0.6244706048449089 L0.5083434443184247,0.6245319401636351 L0.5117184768967551,0.6280881041407227 L0.5117609562016554,0.6281526507326873 L0.512546305302001,0.6310578896256516 L0.5323546123929628,0.6310578896256516 L0.5340708799189811,0.6308234666797148 L0.5382100219452068,0.6301731838502391 L0.5382012152600444,0.6301625866485736 L0.5418451107559736,0.6283141777762538 L0.5471317120548012,0.6255939082214468 L0.5591284894069073,0.6218707580363017 L0.5592761308934504,0.6218495636329706 L0.5676870332636375,0.6218495636329706 L0.5676720100948316,0.6218319016301947 L0.5676906595457636,0.6218386453039813 L0.5678372649516987,0.6210772524206831 L0.5737532852194702,0.6019098047536815 L0.573749658937345,0.6019091624990409 L0.5753291638231968,0.5963311808950991 Z" fill="none" stroke="black" stroke-width="0.002"/>
  <path title="Rotterdam - Hoek van Holland" d="M0.2086338168387396,0.5537188696161195 L0.20838774769450286,0.5536610666979485 L0.18304987840229714,0.5397935043729944 L0.18295611310733495,0.5397141859241685 L0.17689348743362832,0.5313610219931562 L0.17697792800312495,0.5310967342061659 L0.18120979924370495,0.5286272650907833 L0.16854215969836162,0.5236083661565303 L0.1458944737030512,0.5153550728230414 L0.1371525435788259,0.5121678841403039 L0.13700179385046152,0.5118759794035199 L0.14131085309628677,0.5057235010183874 L0.12962697208759,0.5018609815749713 L0.12847536849255814,0.502089624229086 L0.12843547938917688,0.5020870552105023 L0.12839507224549163,0.5021336186723602 L0.12496201915315108,0.5001927251309581 L0.12488534918820982,0.5001326743215202 L0.12070839021981783,0.49537196175511866 L0.12078868646688434,0.4950884063287404 L0.12166262045915488,0.49460767872591305 L0.11781254492237103,0.4927997318963122 L0.08677675033023391,0.5086390159856933 L0.08641360407736975,0.5086778723918002 L0.07291606396556638,0.5057257489096472 L0.07121792785017611,0.5082886660760835 L0.09416711330221528,0.5138130194170429 L0.11282278071753904,0.5194905504911702 L0.1344561437982872,0.5297280895547019 L0.1344561437982872,0.5297280895547019 L0.16358606811326748,0.5450664150198961 L0.18216610164425706,0.5533810436721183 L0.2025691190038188,0.5615126297501192 L0.20948392097704271,0.5537188696161195 L0.2086338168387396,0.5537188696161195 Z" fill="none" stroke="black" stroke-width="0.002"/>
  <path title="Rotterdam - Rozenburg" d="M0.2575404477861589,0.5905207031091706 L0.2439465521778752,0.584731740853897 L0.20945283855882302,0.573551371969458 L0.21652823302618085,0.5847522930025804 L0.21821808049671265,0.593135642901963 L0.2505583005734593,0.6002832948616899 L0.2534282438557236,0.5976445916469757 Z" fill="none" stroke="black" stroke-width="0.002"/>
  <path title="Schiedam" d="M0.36920364131463934,0.5910535516177902 L0.36548330166087073,0.5783895683994373 L0.36219201338674,0.5759046853678385 L0.36182571837014343,0.573428903974829 L0.3639220820841276,0.5723125387818371 L0.3621976411690149,0.5642286747100584 L0.3506713593085671,0.5484934810102757 L0.3670711792315027,0.5447800932826894 L0.3635098085346664,0.5391294122830459 L0.37930946578153435,0.5365933746987324 L0.38891030243858005,0.554470175138583 L0.3951878153660804,0.5530729599629254 L0.39344792286714014,0.5557404807948458 L0.4039201680191242,0.5627473864341681 L0.41080290174909173,0.5617322686827393 L0.4154921699766492,0.5592414583009102 L0.4177129274203901,0.5615234088894638 L0.4094654023994613,0.5638484786328561 L0.40814736948271335,0.5681918780082853 L0.41701249255488815,0.5774781291592745 L0.4152518463478394,0.585516068606573 L0.40907532171750294,0.587950265872081 L0.41567695494093204,0.5949752193864839 L0.41233831789996156,0.5975788885076057 L0.41371031596055996,0.5992453782927356 L0.3975997138720322,0.6028341584679282 L0.3883440829834859,0.603220886824765 L0.37062268499617357,0.6006444740200365 L0.36920364131463934,0.5910535516177902 Z" fill="none" stroke="black" stroke-width="0.002"/>
  <path title="Vlaardingen" d="M0.2703442919045127,0.5929008505933382 L0.3136933146011822,0.5651098730188906 L0.3228932058057987,0.5572877640411846 L0.32573602100336707,0.5577718697812699 L0.33655642650975004,0.5526029978150078 L0.3506713593085671,0.5484934810102757 L0.3625688400189011,0.565092962038996 L0.3639220820841276,0.5723125387818371 L0.36182571837014343,0.573428903974829 L0.36219201338674,0.5759046853678385 L0.3655126452570219,0.5784538084371178 L0.37062268499617357,0.6006444740200365 L0.3565454553836087,0.6009548724630207 L0.33527891599984283,0.6055710481838759 L0.32225017248198995,0.6057243792230551 L0.2865337231704803,0.601104255794958 L0.26757121107334214,0.5946649589286821 L0.2703442919045127,0.5929008505933382 Z" fill="none" stroke="black" stroke-width="0.002"/>
  <path title="Voorschoten" d="M0.4511516056790894,0.35762523132602553 L0.4592872660479079,0.3503032833450561 L0.465405524840266,0.3505571020876417 L0.4685781384282892,0.36804497544513737 L0.44715943000643943,0.386160447588189 L0.4388550948631904,0.3901443433487728 L0.4335787806910023,0.3958420104222995 L0.42790258451118035,0.3985297577984923 L0.40115906560948833,0.388130006957212 L0.44298853307509667,0.35465421403321074 L0.4446780845107581,0.35938011734948816 L0.4511516056790894,0.35762523132602553 Z" fill="none" stroke="black" stroke-width="0.002"/>
  <path title="Waddinxveen" d="M0.6102808440862049,0.45119103930021964 L0.6055130346982969,0.44945468435228975 L0.6084215759937983,0.43686138433189114 L0.6069068137566473,0.4229502864675254 L0.6253203771489302,0.4235566649939102 L0.6253071804804007,0.42555277506826883 L0.6368508957560381,0.4262628722737034 L0.6382251218438784,0.43517640635393207 L0.659967730661629,0.43589569337672174 L0.6640240907595691,0.44229495925037554 L0.6669646574587826,0.4423726252531708 L0.6696999108956092,0.4444953652256629 L0.6690014071130452,0.4476584536999013 L0.679804044004646,0.4479275318232254 L0.6773114853180182,0.45602893460853267 L0.6870594224256594,0.45616392327330857 L0.70603928983153,0.4598803027296299 L0.6866671228693058,0.46964360930218163 L0.6672789960514116,0.47492166469768193 L0.6818231051030317,0.4806924980365821 L0.6670002332017866,0.4868988712758622 L0.6645100699023612,0.4843008965171762 L0.6675398232454084,0.47769935377688455 L0.6637711856679713,0.47799240837335333 L0.6628002762481318,0.4760157374801892 L0.6551848022322311,0.47898408058937036 L0.6486279688249574,0.479428926678267 L0.648425253811654,0.48101348630203944 L0.6368025640138288,0.48832010040300844 L0.6247356991490864,0.4852779486602472 L0.5910894282108616,0.46491262544632406 L0.6073345576137292,0.4546880053960365 L0.6062727151878127,0.45405090210168453 L0.6102317958148262,0.4535060215526485 L0.6102808440862049,0.45119103930021964 Z" fill="none" stroke="black" stroke-width="0.002"/>
  <path title="Wassenaar" d="M0.39695424042547156,0.3266843996795217 L0.40480179320459975,0.33249759610940544 L0.40931917944700213,0.33065794518677194 L0.411633165529004,0.3365364454697186 L0.417786312912237,0.33852247285043546 L0.41977153230044717,0.33765567059149504 L0.425973996750896,0.3407701935734835 L0.44047818036646635,0.3443470176236971 L0.4388651573835727,0.3467355160379171 L0.4439393118700039,0.3539587372771038 L0.4009335438293542,0.3883844363271791 L0.3727092969884298,0.40522740711923433 L0.3584892581668262,0.3942386882908693 L0.34231809291113713,0.4025181732606171 L0.33857337366044504,0.4025651924963185 L0.33725293023634695,0.4012304905388717 L0.3274844591161301,0.40443290568548207 L0.32328202568052156,0.40078349076749475 L0.33226427528763214,0.3969599168320386 L0.33031736570330583,0.3956579917475622 L0.3330604138549669,0.39426921963778483 L0.302505794252947,0.3713840035021718 L0.290063187400035,0.3649637801060379 L0.33263961750469484,0.3315633181171975 L0.3600017737372001,0.3073226059188414 L0.37501571908681886,0.3133870790202451 L0.39695424042547156,0.3266843996795217 Z" fill="none" stroke="black" stroke-width="0.002"/>
  <path title="Westland" d="M0.14072056830083213,0.4709205080664063 L0.1849984202356083,0.43854928262997817 L0.19632876619848538,0.44432304665170363 L0.19885354447891235,0.44999764134889375 L0.21243434641776293,0.4659669448985966 L0.20958452660491744,0.4663453077819497 L0.21229222098120637,0.4692883771515497 L0.21922671349289935,0.4662632223971741 L0.2283262556493364,0.46535790604174565 L0.23501472156617798,0.4607050113949285 L0.2482171029176179,0.47477420675464543 L0.2726626828369234,0.46408287568247175 L0.2817107789188684,0.4725690119049162 L0.2852498610498362,0.47257767606052425 L0.28825454952034324,0.4762423730086027 L0.28673371836111095,0.477015417228948 L0.2943445844285444,0.4806413524521602 L0.2897360888291578,0.48235218710847505 L0.2955121489517678,0.4851515688164909 L0.30107536504236077,0.4821310495910609 L0.3026640619345642,0.4835119523340694 L0.3076385852445034,0.4818486419022605 L0.30981926198591836,0.48436596254095576 L0.2652451754315992,0.504163813263041 L0.2668819882969382,0.5066741977951352 L0.2803216410440603,0.5096525391930271 L0.2840899761346396,0.5143590203270278 L0.2886837861257483,0.5111747397457904 L0.29191433311341264,0.5170302517652985 L0.29562946341687724,0.516402879934148 L0.2963245989193313,0.518235223873873 L0.29876641730030773,0.5178930440384804 L0.30314326575938466,0.5200998496404949 L0.2875534612388648,0.5266446331131363 L0.28935087309886764,0.5281289900484083 L0.285091555751956,0.5301104240015917 L0.2803150342631344,0.5285485976542859 L0.2781610624228179,0.5295668268584706 L0.27322469120676196,0.5263569767209475 L0.2714557762675449,0.5301401003302075 L0.27653743006839626,0.5349460244302335 L0.2634485726789748,0.5399064060403234 L0.25362903994392827,0.5411332536050679 L0.2339573865622464,0.5466686141109776 L0.23449810941818683,0.5508796017324968 L0.24107021972075593,0.5569663742385131 L0.23694103550624668,0.5560703323977734 L0.23176702181690434,0.5570776483225899 L0.22829203108517682,0.5520084993189727 L0.2198028924592128,0.558616540479349 L0.2178237180250049,0.5583633291320709 L0.19239603778805936,0.54519406214105 L0.1867238526546533,0.537324086950953 L0.19060881632785076,0.5340183808743717 L0.1871639417983051,0.5343418837016927 L0.18749279692752374,0.5331629864831982 L0.1758981895536733,0.5283062123995421 L0.1550625717983607,0.5221619436869176 L0.15534866666539937,0.5202925367665401 L0.14728070517020164,0.5186067176973097 L0.15097168717398635,0.5123638029587241 L0.13568802276178094,0.5073644739369954 L0.1309872632388709,0.502820684343007 L0.1325176325216093,0.5014574050417764 L0.1185890813215984,0.49547237500254937 L0.11016407637052339,0.4955634979670194 L0.11996527608767504,0.48934496628413626 L0.14072056830083213,0.4709205080664063 Z" fill="none" stroke="black" stroke-width="0.002"/>
  <path title="Zoetermeer" d="M0.4723730439392888,0.4617210677177752 L0.4707436788530144,0.4595222914083905 L0.45764380653775394,0.46138134193274283 L0.4505641380822638,0.45078979415535514 L0.4220724040016526,0.4483269133164143 L0.4153946231319994,0.4425586702684896 L0.42248965472892497,0.442805961118097 L0.42140419990310996,0.43669654499638 L0.45546247153326824,0.4216868903057076 L0.4756598606165934,0.41870369992312106 L0.474274727390279,0.41473933589130496 L0.4930180741866943,0.4122480878659971 L0.4922189263120682,0.40999023816462454 L0.497805895285758,0.41216243885124726 L0.4999670356630208,0.40834479867891105 L0.5044496103514797,0.4067096697926047 L0.5305799758823682,0.41950196936409156 L0.5360473795898644,0.42307190503267833 L0.5336949573017584,0.42694887043770535 L0.557686358181698,0.4390474698591049 L0.550565546313103,0.4436626555199652 L0.5453353623741224,0.4510637101414616 L0.5346656214023726,0.4504367480087055 L0.5152915131514391,0.46078400464145375 L0.5057298781021196,0.46786008194391826 L0.47702788629856663,0.468719425422087 L0.4723730439392888,0.4617210677177752 Z" fill="none" stroke="black" stroke-width="0.002"/>
  <path title="Zoeterwoude" d="M0.4937234377449258,0.37001387576744094 L0.5132127683140766,0.36002585685584876 L0.5106765804367326,0.3591341246519235 L0.5144759145218094,0.3561380717632474 L0.5240376815088084,0.3526021339770935 L0.530108314988877,0.3579164362286704 L0.543948746305257,0.3591565113411477 L0.5507330487425213,0.36161971568094486 L0.546307161028853,0.36597880275394346 L0.5476205382083421,0.36768995646765745 L0.5413935572379973,0.3765192669646851 L0.5419052990293576,0.3813397994848984 L0.5353227682967239,0.37956752362634205 L0.5371346651713091,0.41605402246270273 L0.5305551795703334,0.41948926914073326 L0.5044496103514797,0.4067096697926047 L0.4999670356630208,0.40834479867891105 L0.497805895285758,0.41216243885124726 L0.4918140844923933,0.40996837913069584 L0.4904136584591896,0.4021416155713524 L0.4708257868728598,0.38229189807090336 L0.4937234377449258,0.37001387576744094 Z" fill="none" stroke="black" stroke-width="0.002"/>
  <path title="Zuidplas" d="M0.5987730415586494,0.5120314081767674 L0.5943675179436037,0.5057184489948696 L0.5789357591204567,0.5101301361297601 L0.5796871584817378,0.5127328432520599 L0.577312228229836,0.5135951683422348 L0.5789184872430164,0.5188657994098946 L0.5702299014952157,0.5209699004916146 L0.5735294025582514,0.5254238827142856 L0.5789998192737418,0.524212806747677 L0.5719089179105357,0.5281312254563915 L0.5624137394419453,0.5280732824675596 L0.5565593729141067,0.5315447921639702 L0.5476862829048326,0.5271933897788301 L0.5537605360725539,0.5229588899906545 L0.5480697987782159,0.5165723824077304 L0.5463392757044128,0.5084858432912327 L0.5548751472058537,0.49405141613192427 L0.5582179734216579,0.47109155219619936 L0.5634571698918451,0.4642230216627823 L0.5610596340680614,0.4579391391087526 L0.5653030353033284,0.4408800251744651 L0.6078088852682164,0.43446410746118147 L0.6055130346982969,0.44945468435228975 L0.6109474088462461,0.45128914854081614 L0.610295830974585,0.4534301411519692 L0.6062727151878127,0.45405090210168453 L0.6073345576137292,0.4546880053960365 L0.5910894282108616,0.46491262544632406 L0.6247356991490864,0.4852779486602472 L0.6368025640138288,0.48832010040300844 L0.648425253811654,0.48101348630203944 L0.6486279688249574,0.479428926678267 L0.6551848022322311,0.47898408058937036 L0.6628002762481318,0.4760157374801892 L0.6640404602682857,0.47808441354546005 L0.6673426696210463,0.4773014459753142 L0.6646314840034213,0.4850893090949313 L0.6707289212445309,0.4888735917008873 L0.6594545595404737,0.49471230505508146 L0.6628102423314788,0.496754176780577 L0.6707169442466929,0.49767389042256127 L0.6802294606847124,0.5034584264623021 L0.6840212749874821,0.5020423299692425 L0.6886845130836754,0.5037419593987593 L0.6730168312931273,0.5137452888021983 L0.6689511527875593,0.5208049743677563 L0.631525769666295,0.5305407570644007 L0.6310996418605423,0.5323781166415316 L0.6397735746827893,0.537823229660269 L0.646104965187476,0.5455826751029633 L0.6395126624731837,0.5491029651194737 L0.6342372628590507,0.5625430535700744 L0.6234585561317383,0.5638895177751664 L0.6194886249154701,0.5665077330829646 L0.5997340093709171,0.552327704740847 L0.602068263223086,0.5505244032064667 L0.583992414454773,0.5346310348540513 L0.6018082645000682,0.5278599014789052 L0.5937406135612671,0.523911408993655 L0.5987730415586494,0.5120314081767674 Z" fill="none" stroke="black" stroke-width="0.002"/>
  <path title="Zwijndrecht" d="M0.5667433540834264,0.6871708487725101 L0.5611820548403044,0.682068133426263 L0.5572394248002617,0.6731373215854148 L0.5536087009765494,0.6701030958471179 L0.5600134247071793,0.6612087367766435 L0.5710584464009374,0.6528832265713262 L0.6001974788532127,0.661280801705125 L0.6372086334143248,0.674651683983889 L0.6618857618844283,0.6683921160885333 L0.6717086900652944,0.6791460255821633 L0.6618985204451802,0.6814883751093035 L0.6383304146809383,0.6960065546497063 L0.6232952483526262,0.6992400223104482 L0.5990376024694868,0.6938946808938482 L0.5795523409874308,0.6919960382803012 L0.5667433540834264,0.6871708487725101 Z" fill="none" stroke="black" stroke-width="0.002"/>
</svg>